PathFileType	4	(X/Y/Z)	 s07c0303.trc
DataRate	CameraRate	NumFrames	NumMarkers	Units	OrigDataRate	OrigDataStartFrame	OrigNumFrames
200	200	7	48	mm	200	751	2000
Frame#	Time	racr			lacr			c7			jug			rlel			rdr			llel			ldr			s2			lic			ric			lasi			rasi			rpsi			lpsi			rgt			lgt			rth1			rth2			rth3			rth4			rlfc			rmfc			rsh1			rsh2			rsh3			rsh4			rlmal			rcal			rtoe			rmt5			lth1			lth2			lth4			lth3			llfc			lmfc			lsh1			lsh2			lsh3			lsh4			llmal			lcal			ltoe			lmt5			SBIKE			LBIKE			RBIKE			
		X1	Y1	Z1	X2	Y2	Z2	X3	Y3	Z3	X4	Y4	Z4	X5	Y5	Z5	X6	Y6	Z6	X7	Y7	Z7	X8	Y8	Z8	X9	Y9	Z9	X10	Y10	Z10	X11	Y11	Z11	X12	Y12	Z12	X13	Y13	Z13	X14	Y14	Z14	X15	Y15	Z15	X16	Y16	Z16	X17	Y17	Z17	X18	Y18	Z18	X19	Y19	Z19	X20	Y20	Z20	X21	Y21	Z21	X22	Y22	Z22	X23	Y23	Z23	X24	Y24	Z24	X25	Y25	Z25	X26	Y26	Z26	X27	Y27	Z27	X28	Y28	Z28	X29	Y29	Z29	X30	Y30	Z30	X31	Y31	Z31	X32	Y32	Z32	X33	Y33	Z33	X34	Y34	Z34	X35	Y35	Z35	X36	Y36	Z36	X37	Y37	Z37	X38	Y38	Z38	X39	Y39	Z39	X40	Y40	Z40	X41	Y41	Z41	X42	Y42	Z42	X43	Y43	Z43	X44	Y44	Z44	X45	Y45	Z45	X46	Y46	Z46	X47	Y47	Z47	X48	Y48	Z48	
751	3.7550	761.477231	1379.990290	-26.113001	768.918190	1448.889394	-326.080886	754.904599	1470.211544	-166.561453	702.756872	1333.181298	-206.474864	532.609811	1101.251149	54.621829	721.326657	916.817749	-50.934345	618.895005	1166.174633	-485.344156	732.495416	909.300251	-399.219881	160.768827	1301.517247	-267.664197	336.515589	1331.978165	-389.342500	324.029428	1277.895273	-106.264787	343.225408	1247.015222	-373.584297	331.204974	1233.776288	-124.154612	193.506734	1328.528292	-211.014139	210.909446	1345.848607	-317.082609	234.247789	1176.963317	-78.350075	253.447075	1185.156541	-440.782861	301.604227	1026.448059	-66.884805	344.870441	949.981351	-74.298252	346.971355	864.698978	-74.200076	377.771825	960.705529	-86.839983	378.948921	732.349546	-103.281301	364.131031	717.121634	-203.129699	320.286656	600.649802	-72.360191	308.906267	513.363711	-89.842799	260.170756	442.134286	-83.795974	324.738700	510.878721	-127.032152	204.205152	313.426048	-78.501294	135.233311	273.246847	-106.181873	425.146436	240.166647	-117.188856	345.752127	209.773212	-47.791213	307.120320	1071.375168	-441.078852	372.260369	1012.708551	-432.183827	399.883640	1031.037780	-418.157230	399.574287	927.978130	-428.400146	456.219181	759.027858	-397.163908	435.710218	746.690181	-298.841789	320.360770	690.014511	-415.074521	255.688397	636.546757	-395.404763	166.916050	619.405553	-401.389964	260.022527	636.805901	-353.670670	41.865224	567.980936	-399.999071	-33.723750	587.178971	-364.713882	154.601418	367.988896	-354.400375	81.555567	406.340811	-416.640891	-256.922063	964.634631	-230.114977	-76.440766	83.468395	-436.417174	-82.634702	79.257621	-39.158714	
752	3.7600	763.291513	1381.086257	-29.011047	767.201022	1451.682041	-329.202153	754.064645	1473.965009	-169.021802	704.085532	1336.668980	-210.563109	535.032871	1102.535449	56.098799	721.395453	916.480784	-50.289767	619.647375	1165.836196	-485.914674	732.759612	909.275488	-399.164807	160.967117	1297.266464	-264.417459	335.014763	1330.588929	-387.549356	326.717903	1273.329774	-105.179707	342.757966	1245.528764	-372.624813	333.516344	1229.135285	-123.162024	194.062419	1324.057304	-207.846882	210.155527	1342.623002	-313.889106	236.303741	1171.418107	-77.229609	253.557450	1183.144789	-439.666989	300.250089	1019.363491	-66.787475	341.517263	942.032951	-74.886483	341.451114	856.564241	-75.159429	374.659789	951.679810	-87.873832	370.690455	724.301195	-104.828534	357.823901	708.457294	-201.258427	313.281193	592.485145	-72.836518	302.100150	505.050073	-90.663550	253.877317	433.513951	-83.683992	317.306638	502.535764	-127.864554	198.137360	304.414579	-78.098452	129.026912	264.938936	-104.897006	418.787908	230.631927	-117.714922	339.607016	200.647482	-47.953074	310.098222	1070.947805	-440.623672	376.699372	1013.684530	-432.119137	403.684449	1032.705009	-418.630795	406.201353	929.813280	-429.003903	465.982657	762.075886	-399.026624	446.183942	749.242164	-300.578287	329.875174	693.768783	-415.466870	264.628891	641.113063	-395.045817	175.734260	624.980013	-400.959778	268.945888	642.489510	-353.364658	49.889699	576.773855	-400.046826	-24.363501	596.549451	-363.350241	161.144025	375.608539	-354.285732	88.284855	414.868137	-416.407027	-256.861325	964.564965	-230.375251	-76.362293	83.414526	-436.430251	-82.604501	79.246880	-39.139716	
753	3.7650	765.157770	1382.749233	-32.398175	765.379945	1454.724062	-333.117074	753.049789	1477.248072	-172.061541	705.862381	1339.325766	-214.617484	537.759088	1104.541814	57.640390	721.391280	916.501767	-49.819692	620.140063	1165.811207	-486.533745	733.034560	909.278877	-399.174230	161.155313	1292.724595	-260.986245	333.415919	1329.409580	-385.738437	329.377733	1268.865547	-104.031605	342.368516	1244.253584	-371.460852	335.922524	1224.519716	-122.006106	194.634510	1319.715731	-204.347333	209.194981	1339.111705	-310.496879	238.652888	1165.642332	-75.902538	253.852662	1181.251714	-438.538295	298.962401	1011.933298	-66.894296	338.149510	933.732731	-75.310929	335.860489	848.207508	-75.961139	371.362084	942.809196	-88.488527	362.106682	716.578436	-106.006397	347.959500	700.773182	-201.883958	305.868021	584.425319	-73.675308	294.620769	497.115802	-91.361228	246.889876	425.231214	-83.611419	309.560263	494.642159	-128.737603	191.026634	296.832300	-76.587127	122.218151	257.024046	-103.607022	411.818409	221.913264	-118.537905	333.014143	192.174849	-48.338306	313.474307	1070.761153	-439.878498	381.258839	1015.192978	-432.417515	408.220235	1034.872291	-419.498433	412.999774	932.058172	-429.984303	476.507434	766.012686	-400.791909	457.755451	753.281444	-302.247533	340.322029	698.424158	-415.969293	274.701137	646.398884	-395.264771	185.718790	630.917167	-400.851361	279.099032	648.151027	-353.506744	59.363321	584.578672	-399.491182	-14.307350	605.712613	-363.001344	167.969180	382.653858	-354.762005	96.043944	422.644676	-416.557797	-256.907111	964.514954	-230.598180	-76.349467	83.385395	-436.435295	-82.642606	79.195110	-39.100727	
754	3.7700	766.982254	1384.915877	-36.152550	763.320642	1457.842374	-337.304929	752.081632	1480.728619	-175.869030	707.269658	1342.242965	-219.027540	540.853515	1107.130551	59.092656	721.490475	916.750180	-49.493546	620.478256	1165.993288	-486.973244	733.311152	909.309668	-399.247687	161.218565	1288.011393	-257.332730	331.669456	1328.384541	-383.979842	332.005079	1264.508830	-102.763572	342.076665	1243.215420	-370.157128	338.346654	1219.769101	-120.670027	194.621839	1315.432024	-201.005970	207.390080	1335.437821	-306.537150	241.027671	1159.656194	-74.675545	254.175628	1179.499610	-437.221315	297.904629	1004.725636	-66.527611	334.810774	925.448378	-75.618132	330.272925	839.901852	-76.802812	368.061060	933.683854	-89.097238	353.682126	708.864964	-107.331393	336.003916	693.724436	-205.047113	297.935645	577.153296	-74.195217	286.724847	489.785698	-91.805577	239.345380	417.752674	-83.446616	301.015048	487.278098	-129.302057	183.880664	289.500051	-75.745071	114.902445	249.869171	-102.322682	404.219405	213.497123	-119.429734	325.908260	184.283710	-48.632946	316.601245	1070.541239	-439.469002	385.935674	1016.606783	-432.561706	413.061543	1037.935776	-422.480989	419.868967	934.544730	-430.789414	487.785077	770.701071	-402.624847	469.905625	757.794567	-303.899954	351.540007	704.066141	-416.661477	285.718930	652.158890	-395.930831	196.565465	637.465597	-400.954007	290.357983	653.243425	-354.318936	70.405713	592.096029	-399.231431	-3.252747	615.033451	-362.262337	175.307807	388.283421	-354.392237	104.063306	429.955555	-416.429727	-257.006927	964.518482	-230.722255	-76.361067	83.394859	-436.416768	-82.649834	79.191439	-39.123906	
755	3.7750	768.840786	1387.613396	-40.418464	761.103006	1461.080663	-341.666744	751.317071	1484.296426	-180.080121	708.336439	1345.354401	-223.531735	544.342025	1110.113254	60.340441	721.989300	917.047645	-49.246713	620.629984	1166.321743	-487.490431	733.579161	909.368249	-399.367794	161.376653	1283.125867	-253.500440	329.783428	1327.465925	-382.070897	334.626296	1260.351263	-101.467574	341.814475	1242.305802	-368.847347	340.846167	1215.026548	-119.236536	195.201490	1310.507979	-197.673341	206.160525	1331.900243	-302.665656	243.598489	1153.615846	-73.313704	254.570501	1177.847734	-435.835633	296.844158	997.789517	-65.750959	331.498595	917.553441	-75.811877	324.812583	831.902966	-77.460774	364.924960	924.734901	-90.281990	344.981286	702.130246	-108.169044	327.458944	686.715994	-202.436090	289.473799	570.508610	-74.306133	278.328242	483.032689	-92.003726	231.376781	410.855561	-83.179833	292.199013	480.786967	-129.681544	176.253598	283.257264	-74.332382	107.210950	243.371765	-101.565806	396.255966	205.389868	-119.736516	318.083689	176.639747	-48.851813	319.659667	1070.444783	-439.440916	390.782070	1018.532893	-434.235101	417.557392	1040.769128	-424.854297	427.050004	937.561738	-432.437991	499.859229	776.074542	-404.316823	482.994833	763.049124	-305.141807	363.312600	707.407517	-412.294452	297.514746	658.494735	-397.055656	208.157448	644.064391	-401.258706	302.695599	659.261473	-355.441208	82.636396	599.154326	-399.187483	9.448888	623.892488	-361.982161	182.758344	393.111408	-353.542413	113.208619	437.083546	-416.929956	-257.171588	964.490537	-230.774328	-76.386612	83.396579	-436.412637	-82.638050	79.173021	-39.134701	
756	3.7800	770.681543	1390.685073	-44.876908	758.568686	1464.502829	-346.253677	750.631939	1487.912966	-184.306560	708.992121	1348.608924	-227.831084	547.906427	1113.431158	61.565219	722.227515	917.580525	-48.449700	620.482147	1166.848484	-488.143690	733.828216	909.454667	-399.504537	161.761329	1277.939628	-249.712351	327.700995	1326.713477	-380.203348	337.307540	1256.450538	-100.097596	341.569571	1241.518685	-367.603835	343.343703	1210.417227	-117.759980	197.039572	1304.458174	-195.978392	205.015734	1328.003286	-298.766787	246.279099	1147.794801	-71.919339	254.881319	1176.321062	-434.375880	295.715450	991.550867	-64.855514	328.183092	910.307113	-75.745775	319.248599	824.847829	-78.025210	361.524724	916.771039	-90.548804	336.251868	695.952987	-108.267876	316.889149	680.622355	-202.358287	280.904291	564.486532	-74.139473	269.852671	477.062353	-91.761645	223.062664	404.753804	-82.776936	283.669965	474.859941	-129.545118	169.020983	275.669301	-75.835722	99.077926	237.775681	-101.235075	387.913709	197.742061	-119.667446	308.848455	168.959601	-49.650870	322.605241	1070.508909	-439.757223	395.547057	1020.984083	-436.042391	421.771587	1043.955421	-426.815510	434.359037	941.046557	-434.343970	512.200144	782.441823	-406.513723	496.396206	768.973605	-306.644256	375.729177	713.876735	-413.384295	309.778132	665.180954	-398.396388	220.695085	650.542830	-401.383705	315.569333	665.028320	-356.734786	95.680871	605.921221	-399.368814	23.173380	632.288938	-361.756041	190.848933	397.171638	-353.095090	122.228079	442.950368	-416.515661	-257.325687	964.476400	-230.825146	-76.428373	83.398418	-436.430133	-82.661996	79.190450	-39.111795	
757	3.7850	772.330316	1394.136621	-49.573654	755.875938	1467.897984	-350.928400	750.016608	1491.576039	-188.616038	709.238092	1351.990565	-232.008285	551.843299	1116.559789	62.386993	723.198518	917.688702	-48.420507	620.161907	1167.408674	-488.861456	734.048956	909.568155	-399.623360	162.084462	1273.022671	-245.790929	325.543180	1326.022266	-378.424251	339.999845	1252.834766	-98.451452	341.398421	1240.869040	-366.319448	345.955899	1206.080086	-116.180407	197.591157	1299.810751	-192.284078	203.915309	1324.184629	-294.765016	248.802131	1142.387684	-70.606010	255.257264	1174.861404	-432.794122	294.486379	986.479298	-63.724430	324.712562	904.390036	-75.409208	313.470245	819.201853	-78.050520	358.087785	909.989322	-90.615180	327.549408	690.435984	-107.918383	302.977500	677.007509	-204.335208	272.179186	559.031023	-73.687936	261.153044	471.725902	-91.436713	214.553341	399.283676	-82.416740	274.897347	469.528914	-129.218369	160.210894	269.234696	-76.895412	90.869659	233.061569	-101.048158	379.255756	190.520793	-120.075141	300.374604	162.602699	-49.396592	325.432328	1070.903304	-440.133883	400.186960	1023.653064	-437.557335	425.587658	1047.021171	-427.746369	441.677643	945.178877	-436.344911	524.470727	789.773006	-409.196329	510.175153	776.117152	-309.328649	388.590254	720.504306	-414.728651	322.881496	671.666451	-399.762620	233.739593	656.964036	-402.109416	329.073685	670.863662	-358.150419	109.484750	612.189581	-399.626913	37.645499	640.254821	-361.568134	199.261902	400.688529	-352.736797	132.605093	448.906585	-417.080477	-257.371772	964.462448	-230.738956	-76.452142	83.423552	-436.443275	-82.632922	79.270898	-39.156352	
